<?xml version="1.0" standalone="no"?>
<!DOCTYPE svg PUBLIC "-//W3C//DTD SVG 20010904//EN"
 "http://www.w3.org/TR/2001/REC-SVG-20010904/DTD/svg10.dtd">
<svg version="1.0" xmlns="http://www.w3.org/2000/svg"
 width="864.000000pt" height="864.000000pt" viewBox="0 0 864.000000 864.000000"
 preserveAspectRatio="xMidYMid meet">
<metadata>
Created by potrace 1.11, written by Peter Selinger 2001-2013
</metadata>
<g transform="translate(0.000000,864.000000) scale(0.100000,-0.100000)"
fill="#000000" stroke="none">
<path d="M4108 8435 c-1 -2 -48 -6 -103 -10 -278 -17 -660 -92 -940 -184 -119
-39 -282 -99 -340 -125 -16 -8 -52 -24 -80 -36 -171 -76 -409 -205 -565 -308
-80 -52 -309 -218 -320 -231 -3 -4 -30 -26 -60 -51 -112 -91 -348 -320 -456
-440 -68 -77 -227 -279 -280 -355 -11 -16 -40 -59 -65 -95 -179 -260 -380
-676 -488 -1010 -17 -52 -51 -176 -75 -275 -48 -201 -63 -279 -86 -450 -6 -44
-13 -91 -15 -105 -24 -166 -24 -738 0 -870 1 -8 6 -40 9 -70 74 -622 305
-1247 659 -1780 212 -318 517 -655 812 -896 613 -501 1342 -812 2115 -903 52
-6 131 -16 175 -21 81 -9 609 -6 700 4 241 28 418 59 631 111 483 119 917 318
1364 626 347 239 742 634 989 989 62 88 131 191 131 193 0 2 30 53 66 113 58
96 137 250 209 409 136 295 271 777 310 1104 4 30 8 61 10 70 27 148 27 819 0
971 -1 8 -6 35 -9 60 -112 755 -363 1362 -807 1950 -48 63 -95 124 -106 135
-10 11 -49 56 -88 100 -527 599 -1257 1049 -2020 1245 -169 44 -312 73 -430
90 -44 6 -109 15 -145 21 -144 20 -686 39 -702 24z m478 -860 c158 -17 345
-51 494 -91 52 -15 106 -29 120 -32 14 -3 122 -39 240 -79 477 -164 551 -180
725 -149 l90 15 81 -80 81 -80 6 -252 c11 -398 32 -718 73 -1082 8 -71 17
-156 21 -187 l6 -57 -39 -10 c-68 -18 -455 -94 -458 -90 -1 2 -24 72 -51 154
-93 296 -200 531 -318 705 -240 353 -536 574 -892 665 -158 40 -232 49 -420
48 -302 -1 -511 -49 -762 -174 -565 -282 -962 -937 -1087 -1789 -122 -834 22
-1639 407 -2275 125 -206 230 -340 392 -500 473 -469 1010 -631 1587 -480 471
122 876 441 1153 907 67 112 134 247 200 401 21 48 42 87 49 87 6 0 61 -19
121 -41 61 -22 157 -58 215 -79 58 -21 117 -43 132 -49 l27 -10 -146 -363
c-79 -200 -151 -376 -158 -393 -7 -16 -94 -232 -193 -479 l-179 -448 -189 1
c-216 2 -296 -6 -473 -49 -277 -68 -384 -90 -591 -122 -127 -20 -184 -22 -450
-23 -318 0 -404 8 -640 56 -560 113 -1075 390 -1475 793 -396 399 -665 881
-809 1448 -112 440 -135 937 -65 1378 28 176 39 228 98 455 57 217 204 561
344 805 441 768 1125 1313 1877 1495 95 23 182 39 295 54 102 14 408 12 561
-4z"/>
</g>
</svg>
